<svg width="382" height="382" viewBox="0 0 380 380" fill="none" xmlns="http://www.w3.org/2000/svg">
<path d="M0 190C0 137.552 18.5547 92.7733 55.6644 55.664C92.7733 18.5547 137.552 0 190 0C242.448 0 287.226 18.5547 324.336 55.664C361.445 92.7733 380 137.552 380 190C380 242.448 361.445 287.226 324.336 324.336C287.227 361.445 242.448 380 190 380C137.552 380 92.7733 361.445 55.6644 324.336C18.5547 287.227 0 242.447 0 190ZM20.7812 190C20.7812 236.511 37.3567 276.341 70.5077 309.492C103.659 342.643 143.489 359.219 190 359.219C236.511 359.219 276.341 342.643 309.492 309.492C342.643 276.341 359.219 236.511 359.219 190C359.219 143.489 342.644 103.659 309.492 70.5077C276.341 37.3567 236.51 20.7812 190 20.7812C143.489 20.7812 103.659 37.3567 70.5077 70.5077C37.3567 103.659 20.7812 143.489 20.7812 190ZM74.219 230.82C73.2295 229.83 73.2295 228.841 74.219 227.851C76.1978 225.872 78.6722 225.13 81.6405 225.625C84.6093 226.12 86.3411 226.614 86.8359 227.109C90.2994 228.594 94.1342 231.933 98.3396 237.129C102.545 242.324 105.885 245.911 108.359 247.89C120.234 257.786 132.356 258.528 144.726 250.117C145.716 246.653 147.324 243.685 149.55 241.21C151.776 238.736 153.88 237.005 155.859 236.015C157.838 235.025 161.302 233.541 166.25 231.562C149.921 230.078 136.686 227.232 126.543 223.027C116.399 218.821 108.359 213.502 102.421 207.07C94.5047 198.163 89.6803 186.536 87.9486 172.187C86.2164 157.838 87.3299 144.726 91.2886 132.851C94.2573 125.429 98.4631 118.75 103.905 112.812C99.9471 100.442 100.689 86.3407 106.132 70.5074C121.965 71.4969 136.314 76.9396 149.179 86.8355C173.918 80.4032 199.647 80.1558 226.366 86.0933C229.829 83.6193 235.149 80.5271 242.323 76.8158C249.497 73.1048 258.527 71.0018 269.413 70.507C271.392 75.9497 272.753 82.382 273.495 89.8038C274.237 97.2257 273.866 104.153 272.382 110.585C283.762 122.46 289.699 138.293 290.194 158.085C290.194 173.918 287.473 187.03 282.03 197.421C276.587 207.812 266.939 216.47 253.085 223.397C243.684 227.851 231.314 230.572 215.976 231.561C222.903 235.025 227.974 238.612 231.191 242.323C234.407 246.034 236.51 251.848 237.5 259.764V283.144L238.242 305.78C239.726 308.254 241.458 310.357 243.437 312.089C245.416 313.821 247.148 315.058 248.633 315.8C250.117 316.542 250.612 317.656 250.117 319.14C249.622 320.625 247.643 321.367 244.179 321.367C235.768 321.367 229.088 318.398 224.14 312.46C222.656 309.986 221.914 307.018 221.914 303.554V267.929C221.914 263.971 220.924 261.125 218.945 259.394C216.966 257.662 214.987 256.548 213.008 256.054V302.811C213.008 311.223 213.997 316.666 215.976 319.14C217.955 321.614 219.192 324.088 219.688 326.561C220.182 327.056 219.811 327.427 218.574 327.674C217.338 327.922 215.235 327.551 212.265 326.561C205.833 325.077 201.38 321.737 198.906 316.542C196.432 311.346 195.195 305.78 195.195 299.842V253.828H185.547V299.843C185.547 305.781 184.309 311.471 181.835 316.914C178.372 323.841 171.94 327.552 162.539 328.047C161.055 327.552 160.312 327.057 160.312 326.563C160.807 326.067 162.292 323.594 164.765 319.141C165.26 318.151 165.879 316.172 166.621 313.203C167.364 310.234 167.735 306.771 167.735 302.813V256.054C165.755 256.549 163.9 257.662 162.168 259.394C160.436 261.127 159.57 263.971 159.57 267.93V303.555C159.57 307.018 158.828 309.987 157.344 312.461C152.89 318.398 146.211 321.368 137.305 321.368C133.841 321.368 131.862 320.625 131.367 319.141C130.872 318.151 130.996 317.285 131.739 316.543C132.481 315.801 133.594 314.935 135.079 313.945C136.563 312.956 137.553 312.213 138.048 311.719C140.027 310.234 141.511 308.255 142.501 305.781C143.985 303.802 144.356 298.607 143.614 290.195C142.872 281.784 142.748 276.341 143.242 273.867C130.377 278.32 117.266 276.093 103.906 267.188C99.9478 263.229 95.9895 257.539 92.0312 250.117C89.0624 244.674 83.1249 238.242 74.219 230.82V230.82Z" fill="white"/>
</svg>
