<svg width="133" height="133" viewBox="0 0 133 133" fill="none" xmlns="http://www.w3.org/2000/svg">
<path d="M66.6452 132.484C103.202 132.484 132.838 102.849 132.838 66.2915C132.838 29.7343 103.202 0.0989075 66.6452 0.0989075C30.088 0.0989075 0.452637 29.7343 0.452637 66.2915C0.452637 102.849 30.088 132.484 66.6452 132.484Z" fill="#6C63FF"/>
<path opacity="0.2" d="M60.1345 28.3121C64.3295 28.3121 67.7303 24.9114 67.7303 20.7163C67.7303 16.5212 64.3295 13.1204 60.1345 13.1204C55.9394 13.1204 52.5386 16.5212 52.5386 20.7163C52.5386 24.9114 55.9394 28.3121 60.1345 28.3121Z" fill="black"/>
<path opacity="0.2" d="M73.156 104.271C77.3511 104.271 80.7518 100.87 80.7518 96.675C80.7518 92.4799 77.3511 89.0791 73.156 89.0791C68.9609 89.0791 65.5601 92.4799 65.5601 96.675C65.5601 100.87 68.9609 104.271 73.156 104.271Z" fill="black"/>
<path opacity="0.2" d="M102.454 59.7808C105.451 59.7808 107.88 57.3516 107.88 54.3551C107.88 51.3586 105.451 48.9295 102.454 48.9295C99.4579 48.9295 97.0287 51.3586 97.0287 54.3551C97.0287 57.3516 99.4579 59.7808 102.454 59.7808Z" fill="black"/>
<path opacity="0.2" d="M40.6022 89.0791C50.191 89.0791 57.9642 81.3059 57.9642 71.7171C57.9642 62.1284 50.191 54.3551 40.6022 54.3551C31.0135 54.3551 23.2402 62.1284 23.2402 71.7171C23.2402 81.3059 31.0135 89.0791 40.6022 89.0791Z" fill="black"/>
</svg>
