<svg width="1016" height="506" viewBox="0 0 1016 506" fill="none" xmlns="http://www.w3.org/2000/svg">
<path d="M229.637 365.902L226.118 365.912L226.511 504.915L230.03 504.905L229.637 365.902Z" fill="#3F3D56"/>
<path d="M262.045 341.524C262.407 390.13 228.322 429.788 228.322 429.788C228.322 429.788 193.651 390.641 193.289 342.036C192.928 293.431 227.012 253.773 227.012 253.773C227.012 253.773 261.683 292.919 262.045 341.524Z" fill="#3F3D56"/>
<path d="M186.084 324.817L181.522 324.83L182.032 505.04L186.594 505.028L186.084 324.817Z" fill="#3F3D56"/>
<path d="M228.135 305.664C228.604 368.678 184.415 420.093 184.415 420.093C184.415 420.093 139.465 369.341 138.996 306.327C138.528 243.313 182.717 191.898 182.717 191.898C182.717 191.898 227.666 242.649 228.135 305.664Z" fill="#3F3D56"/>
<path d="M716.635 364.523L713.116 364.533L713.509 503.536L717.028 503.526L716.635 364.523Z" fill="#6C63FF"/>
<path d="M749.162 382.146C749.524 430.751 715.439 470.409 715.439 470.409C715.439 470.409 680.768 431.262 680.406 382.657C680.045 334.052 714.129 294.394 714.129 294.394C714.129 294.394 748.8 333.54 749.162 382.146Z" fill="#3F3D56"/>
<path d="M145.637 366.14L142.118 366.15L142.512 505.152L146.031 505.142L145.637 366.14Z" fill="#3F3D56"/>
<path d="M178.045 341.762C178.407 390.367 144.322 430.025 144.322 430.025C144.322 430.025 109.651 390.879 109.29 342.274C108.928 293.668 143.013 254.01 143.013 254.01C143.013 254.01 177.684 293.157 178.045 341.762Z" fill="#3F3D56"/>
<path d="M455.636 365.262L452.117 365.272L452.511 504.275L456.03 504.265L455.636 365.262Z" fill="#3F3D56"/>
<path d="M488.044 340.885C488.406 389.49 454.321 429.148 454.321 429.148C454.321 429.148 419.65 390.001 419.288 341.396C418.927 292.791 453.012 253.133 453.012 253.133C453.012 253.133 487.683 292.279 488.044 340.885Z" fill="#3F3D56"/>
<path d="M412.083 324.177L407.521 324.19L408.031 504.401L412.593 504.388L412.083 324.177Z" fill="#3F3D56"/>
<path d="M454.134 305.024C454.603 368.038 410.414 419.453 410.414 419.453C410.414 419.453 365.464 368.701 364.995 305.687C364.527 242.673 408.716 191.258 408.716 191.258C408.716 191.258 453.665 242.01 454.134 305.024Z" fill="#3F3D56"/>
<path d="M371.636 365.5L368.117 365.51L368.511 504.513L372.03 504.503L371.636 365.5Z" fill="#3F3D56"/>
<path d="M404.045 341.122C404.406 389.728 370.321 429.386 370.321 429.386C370.321 429.386 335.65 390.239 335.289 341.634C334.927 293.029 369.012 253.371 369.012 253.371C369.012 253.371 403.683 292.517 404.045 341.122Z" fill="#3F3D56"/>
<path d="M739.572 429.192L680.615 375.29C680.464 377.72 680.388 380.176 680.406 382.657C680.768 431.262 715.439 470.409 715.439 470.409C725.466 457.931 733.597 444.042 739.572 429.192V429.192Z" fill="#6C63FF"/>
<path d="M302.03 492.301C304.066 499.743 310.98 504.336 310.98 504.336C310.98 504.336 314.594 496.863 312.558 489.421C310.522 481.979 303.608 477.386 303.608 477.386C303.608 477.386 299.995 484.859 302.03 492.301Z" fill="#3F3D56"/>
<path d="M304.986 490.692C310.53 496.058 311.229 504.329 311.229 504.329C311.229 504.329 302.939 503.9 297.396 498.534C291.852 493.168 291.153 484.897 291.153 484.897C291.153 484.897 299.443 485.326 304.986 490.692Z" fill="#3F3D56"/>
<path d="M586.029 491.497C588.065 498.939 594.979 503.532 594.979 503.532C594.979 503.532 598.592 496.059 596.557 488.617C594.521 481.175 587.607 476.582 587.607 476.582C587.607 476.582 583.994 484.055 586.029 491.497Z" fill="#6C63FF"/>
<path d="M588.985 489.888C594.529 495.254 595.228 503.525 595.228 503.525C595.228 503.525 586.938 503.096 581.395 497.73C575.851 492.364 575.152 484.093 575.152 484.093C575.152 484.093 583.442 484.522 588.985 489.888Z" fill="#6C63FF"/>
<path d="M78.0313 492.935C80.0672 500.377 86.9812 504.97 86.9812 504.97C86.9812 504.97 90.5944 497.497 88.5586 490.056C86.5228 482.614 79.6088 478.02 79.6088 478.02C79.6088 478.02 75.9955 485.493 78.0313 492.935Z" fill="#3F3D56"/>
<path d="M80.9873 491.326C86.531 496.692 87.2297 504.964 87.2297 504.964C87.2297 504.964 78.9403 504.534 73.3966 499.168C67.8529 493.802 67.1542 485.531 67.1542 485.531C67.1542 485.531 75.4436 485.96 80.9873 491.326Z" fill="#3F3D56"/>
<path d="M387.956 222.48L484.878 367.868C487.009 359.033 488.072 349.973 488.044 340.885C487.868 317.183 479.533 295.733 471.039 279.972L466.577 281.095L470.772 279.481C465.769 270.113 459.818 261.284 453.012 253.133C453.012 253.133 450.557 255.99 446.975 261.105C434.179 220.013 408.716 191.258 408.716 191.258C400.822 200.984 393.87 211.438 387.956 222.48V222.48Z" fill="#6C63FF"/>
<path opacity="0.1" d="M944.02 496.989C944.783 496.987 945.514 496.681 946.052 496.14C946.591 495.599 946.892 494.866 946.889 494.103C946.887 493.34 946.582 492.609 946.041 492.071C945.5 491.533 944.767 491.232 944.004 491.234L920.344 491.301C921.112 492.825 921.242 494.592 920.707 496.212C920.172 497.832 919.015 499.174 917.491 499.941C917.493 500.705 917.798 501.436 918.339 501.974C918.881 502.512 919.613 502.813 920.377 502.811L944.036 502.744C944.8 502.742 945.531 502.436 946.069 501.895C946.607 501.354 946.908 500.621 946.906 499.858C946.904 499.095 946.598 498.364 946.057 497.826C945.516 497.288 944.783 496.987 944.02 496.989V496.989Z" fill="#F2F2F2"/>
<path d="M887.769 491.21C888.218 506.902 878.714 502.929 867.207 502.961C855.699 502.994 846.212 505.021 846.096 491.328C846.039 484.586 855.47 483.092 866.978 483.06C878.486 483.027 887.577 484.47 887.769 491.21Z" fill="#3F3D56"/>
<path d="M914.709 497.336C914.523 497.237 914.32 497.173 914.112 497.146C913.067 496.983 912.032 496.765 911.01 496.492C909.985 496.217 909.042 495.695 908.263 494.973C907.972 494.634 907.647 494.325 907.294 494.051C907.115 493.916 906.9 493.836 906.677 493.821C906.453 493.805 906.23 493.855 906.034 493.964C905.994 493.996 905.956 494.031 905.923 494.07C905.78 493.976 905.636 493.882 905.493 493.788C904.73 493.289 903.964 492.796 903.194 492.308L903.162 492.288C903.184 492.167 903.184 492.044 903.163 491.923C903.028 491.525 902.756 491.189 902.395 490.975C903.387 490.962 904.384 490.869 905.37 490.762C906.309 490.775 907.216 490.418 907.893 489.767C907.995 489.654 908.057 489.511 908.068 489.359C908.069 489.048 907.747 488.846 907.46 488.729C907.077 488.573 906.679 488.457 906.272 488.382C905.988 488.343 905.707 488.285 905.43 488.209C905.184 488.12 904.946 488.009 904.721 487.876C904.231 487.609 903.741 487.341 903.252 487.073C903.043 486.973 902.852 486.841 902.684 486.681C902.434 486.419 902.323 486.046 902.068 485.788C901.834 485.55 900.887 485.239 900.754 485.728C900.701 485.921 900.905 486.134 900.931 486.35C900.603 486.146 900.264 485.961 899.914 485.796C899.933 485.752 899.958 485.713 899.974 485.668C898.348 484.373 897.055 482.708 896.201 480.812C896.346 480.815 896.492 480.823 896.637 480.822C896.885 480.844 897.132 480.783 897.341 480.648C897.427 480.569 897.494 480.472 897.537 480.364C897.58 480.255 897.598 480.139 897.589 480.022C897.569 479.79 897.512 479.563 897.418 479.35C897.209 478.71 896.877 478.118 896.44 477.606C896.017 477.2 895.535 476.86 895.011 476.597L894.926 476.55C894.891 476.442 894.858 476.333 894.814 476.228C894.497 475.572 894.138 474.938 893.74 474.328C893.179 473.307 892.764 472.212 892.508 471.075C892.412 470.382 892.145 469.724 891.73 469.161C890.965 468.323 889.656 468.347 888.528 468.478C887.884 468.552 887.244 468.651 886.604 468.752C886.598 468.736 886.597 468.719 886.591 468.703C886.51 468.552 886.46 468.387 886.442 468.218C886.458 468.079 886.488 467.942 886.532 467.809C886.565 467.644 886.557 467.473 886.508 467.313C886.459 467.152 886.37 467.006 886.249 466.888C886.222 466.863 886.196 466.834 886.169 466.806C886.239 466.64 886.303 466.472 886.362 466.303C886.415 466.24 886.455 466.167 886.478 466.089C886.502 466.01 886.51 465.928 886.501 465.846C886.616 465.436 886.677 465.013 886.68 464.587C886.546 463.646 886.51 462.694 886.571 461.746C886.537 461.511 886.451 461.287 886.32 461.09C886.296 461.059 886.257 461.044 886.23 461.016C886.424 460.757 886.649 460.523 886.899 460.318C887.391 459.936 887.917 459.6 888.471 459.316C888.603 459.242 888.788 459.19 888.915 459.105C889.11 459.138 889.307 459.157 889.504 459.163C890.237 459.165 890.959 458.988 891.608 458.647C892.257 458.306 892.812 457.811 893.225 457.206C893.639 456.601 893.897 455.904 893.979 455.175C894.061 454.447 893.963 453.71 893.694 453.028C893.897 452.978 894.089 452.888 894.256 452.764C894.424 452.639 894.566 452.482 894.672 452.302C894.891 451.92 895.021 451.494 895.053 451.055C895.088 450.887 895.089 450.713 895.056 450.544C895.023 450.375 894.957 450.215 894.862 450.071C894.694 449.909 894.5 449.774 894.289 449.672C893.997 449.491 893.752 449.245 893.573 448.952C893.446 448.744 893.355 448.516 893.241 448.3C893.051 447.901 892.755 447.561 892.386 447.318C892.016 447.074 891.588 446.937 891.146 446.92C890.726 446.975 890.31 447.059 889.902 447.172C888.503 447.421 886.979 446.685 885.682 447.266C885.363 447.422 885.066 447.621 884.801 447.857C884.436 448.16 884.085 448.479 883.749 448.813C883.457 449.064 883.236 449.387 883.109 449.751C882.934 450.414 883.356 451.153 883.091 451.785C883 451.966 882.891 452.138 882.767 452.297C882.473 452.73 882.798 454.416 882.767 454.938C882.73 455.194 882.796 455.454 882.95 455.662C882.989 455.701 883.033 455.734 883.082 455.762C880.906 456.545 878.778 457.456 876.71 458.491C874.227 459.701 872.169 461.634 870.806 464.037C870.456 464.723 870.191 465.449 869.875 466.152C869.454 467.089 868.943 467.983 868.433 468.875C867.812 469.963 867.189 471.053 866.469 472.079C866.058 472.623 865.679 473.19 865.331 473.776C865.322 473.861 865.32 473.947 865.324 474.033C865.338 474.113 865.331 474.197 865.302 474.273C865.271 474.318 865.23 474.355 865.183 474.382C865.136 474.409 865.083 474.426 865.029 474.431L865.012 474.475C864.85 475.001 864.716 475.536 864.611 476.077C864.4 476.937 864.062 477.767 863.934 478.643C863.858 478.752 863.816 478.882 863.814 479.016C863.811 479.149 863.847 479.28 863.919 479.393C863.99 479.506 864.092 479.596 864.214 479.651C864.335 479.706 864.471 479.724 864.602 479.703C865.352 480.034 866.075 480.422 866.796 480.814C866.785 480.866 866.769 480.917 866.763 480.971C866.74 481.528 866.876 482.08 867.154 482.563C867.432 483.046 867.842 483.44 868.335 483.7C869.329 484.205 870.417 484.497 871.53 484.559C871.961 484.61 872.396 484.632 872.828 484.675C873.459 485.024 874.131 485.294 874.829 485.479C874.981 485.523 875.138 485.547 875.297 485.551C875.509 485.537 875.714 485.475 875.899 485.37C876.084 485.265 876.243 485.12 876.364 484.946C880.083 485.141 883.812 485.054 887.518 484.687C888.543 484.445 889.622 484.609 890.529 485.145C891.335 485.796 891.5 486.954 892.1 487.799C892.536 488.32 893.025 488.794 893.558 489.214C894.62 490.331 895.56 491.559 896.361 492.876C897.171 494.207 898.341 495.28 899.735 495.973C899.984 495.572 900.347 495.255 900.777 495.061C900.888 494.995 900.994 494.917 901.103 494.846C901.251 495.084 901.423 495.307 901.616 495.51C901.759 495.664 901.902 495.828 902.037 495.996C902.032 495.996 902.029 495.994 902.025 495.995C901.83 496.026 901.765 496.269 901.744 496.465C901.66 497.215 901.577 497.965 901.493 498.715C901.463 498.863 901.474 499.017 901.524 499.159C901.617 499.314 901.76 499.432 901.93 499.494C902.626 499.826 903.38 500.022 904.15 500.073C904.538 500.098 904.927 500.086 905.314 500.119C905.948 500.2 906.577 500.323 907.194 500.489C908.876 500.868 910.604 500.998 912.323 500.876C912.678 500.867 913.029 500.799 913.362 500.676C913.756 500.486 914.105 500.214 914.386 499.879C914.744 499.538 915.008 499.111 915.155 498.64C915.223 498.403 915.217 498.151 915.137 497.917C915.057 497.684 914.908 497.481 914.709 497.336V497.336Z" fill="#3F3D56"/>
<path d="M886.902 447.18C887.068 447.151 887.232 447.105 887.395 447.062C886.869 446.998 886.334 447.052 885.831 447.218C886.188 447.249 886.548 447.237 886.902 447.18V447.18Z" fill="#FF6584"/>
<path d="M890.241 448.309C890.355 448.524 890.446 448.752 890.573 448.961C890.752 449.253 890.997 449.5 891.289 449.681C891.5 449.782 891.694 449.917 891.862 450.08C891.958 450.223 892.023 450.384 892.056 450.553C892.089 450.722 892.088 450.895 892.053 451.064C892.021 451.503 891.891 451.929 891.672 452.311C891.566 452.491 891.424 452.647 891.256 452.772C891.089 452.897 890.897 452.987 890.694 453.037C891.004 453.764 891.113 454.561 891.009 455.344C890.905 456.128 890.593 456.869 890.104 457.49C889.615 458.111 888.969 458.59 888.232 458.876C887.495 459.161 886.695 459.244 885.915 459.114C885.788 459.198 885.603 459.251 885.471 459.324C884.917 459.609 884.391 459.944 883.899 460.326C883.649 460.531 883.424 460.766 883.23 461.025C883.257 461.053 883.296 461.067 883.32 461.099C883.451 461.296 883.537 461.52 883.571 461.755C883.51 462.703 883.546 463.655 883.68 464.595C883.677 465.021 883.616 465.445 883.501 465.855C883.51 465.937 883.502 466.019 883.478 466.097C883.454 466.176 883.415 466.249 883.362 466.311C883.303 466.48 883.239 466.648 883.169 466.815C883.196 466.843 883.222 466.871 883.249 466.897C883.37 467.014 883.459 467.16 883.508 467.321C883.557 467.482 883.565 467.653 883.532 467.817C883.488 467.95 883.458 468.087 883.442 468.226C883.459 468.396 883.51 468.561 883.591 468.711C883.597 468.727 883.598 468.745 883.604 468.761C884.244 468.66 884.884 468.561 885.528 468.486C885.845 468.448 886.164 468.427 886.483 468.421C886.459 468.356 886.445 468.287 886.442 468.218C886.458 468.079 886.488 467.942 886.532 467.809C886.565 467.644 886.557 467.473 886.508 467.313C886.459 467.152 886.37 467.006 886.249 466.888C886.222 466.863 886.196 466.834 886.169 466.806C886.239 466.64 886.303 466.472 886.362 466.303C886.415 466.24 886.454 466.167 886.478 466.089C886.502 466.01 886.51 465.928 886.501 465.847C886.616 465.436 886.677 465.013 886.68 464.587C886.546 463.646 886.51 462.694 886.571 461.746C886.537 461.511 886.451 461.287 886.32 461.09C886.296 461.059 886.257 461.044 886.23 461.016C886.424 460.757 886.649 460.523 886.899 460.318C887.391 459.936 887.917 459.6 888.471 459.316C888.603 459.242 888.788 459.19 888.915 459.105C889.11 459.138 889.307 459.157 889.504 459.163C890.237 459.165 890.959 458.988 891.608 458.647C892.257 458.306 892.812 457.811 893.225 457.206C893.638 456.601 893.897 455.904 893.979 455.175C894.061 454.447 893.963 453.71 893.694 453.028C893.897 452.978 894.089 452.888 894.256 452.763C894.424 452.639 894.566 452.482 894.672 452.302C894.891 451.92 895.021 451.494 895.053 451.055C895.088 450.887 895.089 450.713 895.056 450.544C895.023 450.375 894.958 450.215 894.862 450.071C894.694 449.909 894.5 449.774 894.289 449.672C893.997 449.491 893.752 449.245 893.573 448.952C893.446 448.744 893.355 448.516 893.241 448.3C893.051 447.901 892.755 447.561 892.386 447.318C892.016 447.074 891.587 446.937 891.146 446.92C890.726 446.975 890.31 447.059 889.902 447.172C889.673 447.209 889.441 447.225 889.209 447.219C889.646 447.482 890.003 447.858 890.241 448.309V448.309Z" fill="#FF6584"/>
<path d="M914.709 497.336C914.523 497.237 914.32 497.173 914.112 497.146C913.067 496.983 912.032 496.765 911.01 496.492C909.985 496.217 909.042 495.695 908.263 494.973C907.972 494.634 907.647 494.325 907.294 494.051C907.115 493.916 906.9 493.836 906.677 493.821C906.453 493.805 906.23 493.855 906.034 493.964C905.994 493.996 905.956 494.031 905.923 494.07C905.78 493.976 905.636 493.882 905.493 493.788C904.73 493.289 903.964 492.796 903.194 492.308L903.162 492.288C903.184 492.167 903.184 492.044 903.163 491.923C903.028 491.525 902.756 491.189 902.395 490.975C903.387 490.962 904.384 490.869 905.37 490.762C906.309 490.775 907.216 490.418 907.893 489.767C907.995 489.654 908.057 489.511 908.068 489.359C908.069 489.048 907.747 488.846 907.46 488.729C907.077 488.573 906.679 488.457 906.272 488.382C905.988 488.343 905.707 488.285 905.43 488.209C905.184 488.12 904.946 488.009 904.721 487.876C904.231 487.609 903.741 487.341 903.252 487.073C903.043 486.973 902.852 486.841 902.684 486.681C902.434 486.419 902.323 486.046 902.068 485.788C901.834 485.55 900.887 485.239 900.754 485.728C900.701 485.921 900.905 486.134 900.931 486.35C900.603 486.146 900.264 485.961 899.914 485.796C899.933 485.752 899.958 485.713 899.974 485.668C898.348 484.373 897.055 482.708 896.201 480.812C896.346 480.815 896.492 480.823 896.637 480.822C896.885 480.844 897.132 480.783 897.341 480.648C897.427 480.569 897.494 480.472 897.537 480.364C897.58 480.255 897.598 480.139 897.589 480.022C897.569 479.79 897.512 479.563 897.418 479.35C897.209 478.71 896.877 478.118 896.44 477.606C896.017 477.2 895.535 476.86 895.011 476.597L894.926 476.55C894.891 476.442 894.858 476.333 894.814 476.228C894.497 475.572 894.138 474.938 893.74 474.328C893.179 473.307 892.764 472.212 892.508 471.075C892.412 470.382 892.145 469.725 891.73 469.161C890.965 468.323 889.656 468.347 888.528 468.478C888.276 468.507 888.026 468.55 887.774 468.585C888.139 468.691 888.469 468.893 888.73 469.17C889.145 469.733 889.412 470.391 889.508 471.083C889.764 472.22 890.179 473.315 890.74 474.337C891.138 474.946 891.497 475.581 891.814 476.236C891.858 476.342 891.891 476.451 891.927 476.559L892.011 476.606C892.535 476.869 893.017 477.209 893.44 477.615C893.877 478.126 894.209 478.719 894.418 479.358C894.512 479.572 894.569 479.799 894.589 480.031C894.598 480.147 894.58 480.264 894.537 480.372C894.494 480.48 894.427 480.578 894.341 480.656C894.132 480.791 893.885 480.852 893.637 480.83C893.492 480.832 893.346 480.823 893.201 480.82C894.055 482.716 895.348 484.381 896.974 485.677C896.958 485.722 896.933 485.761 896.914 485.804C897.264 485.969 897.603 486.154 897.931 486.359C897.905 486.143 897.701 485.93 897.754 485.737C897.888 485.247 898.834 485.559 899.068 485.797C899.323 486.055 899.434 486.427 899.684 486.69C899.852 486.849 900.043 486.981 900.252 487.082C900.742 487.349 901.231 487.617 901.721 487.885C901.946 488.017 902.184 488.129 902.43 488.217C902.707 488.294 902.988 488.352 903.272 488.391C903.679 488.466 904.077 488.582 904.46 488.737C904.748 488.854 905.069 489.057 905.068 489.367C905.057 489.519 904.995 489.663 904.893 489.776C904.216 490.427 903.309 490.784 902.37 490.77C901.384 490.878 900.387 490.971 899.395 490.983C899.756 491.198 900.028 491.534 900.163 491.931C900.184 492.052 900.184 492.176 900.162 492.297L900.194 492.316C900.964 492.804 901.73 493.298 902.493 493.797C902.637 493.89 902.78 493.984 902.923 494.078C902.956 494.04 902.994 494.004 903.034 493.972C903.23 493.864 903.453 493.814 903.677 493.829C903.9 493.845 904.115 493.925 904.294 494.059C904.647 494.333 904.972 494.642 905.263 494.982C906.042 495.704 906.985 496.225 908.01 496.5C909.032 496.773 910.067 496.991 911.112 497.154C911.32 497.181 911.523 497.246 911.709 497.344C911.908 497.49 912.058 497.693 912.137 497.926C912.217 498.159 912.223 498.411 912.155 498.648C912.008 499.12 911.744 499.546 911.386 499.887C911.105 500.223 910.756 500.495 910.362 500.685C910.118 500.778 909.862 500.835 909.602 500.854C910.507 500.932 911.417 500.939 912.323 500.876C912.678 500.867 913.029 500.799 913.362 500.676C913.756 500.486 914.105 500.214 914.386 499.879C914.744 499.538 915.008 499.111 915.155 498.64C915.223 498.403 915.217 498.151 915.137 497.917C915.057 497.684 914.908 497.481 914.709 497.336V497.336Z" fill="#FF6584"/>
<path d="M898.065 494.879C898.115 494.924 898.164 494.971 898.214 495.015C898.177 494.961 898.136 494.909 898.103 494.854L898.065 494.879Z" fill="#FF6584"/>
<path d="M942.711 486.441C942.741 497.036 938.009 494.128 932.182 494.145C926.355 494.161 921.639 497.096 921.609 486.501C921.579 475.906 932.073 455.778 932.073 455.778C932.073 455.778 942.681 475.847 942.711 486.441Z" fill="#FF6584"/>
<path opacity="0.1" d="M936.968 490.511C936.981 495.327 934.83 494.005 932.182 494.013C929.533 494.02 927.39 495.354 927.376 490.539C927.362 485.723 932.132 476.573 932.132 476.573C932.132 476.573 936.954 485.696 936.968 490.511Z" fill="black"/>
<path d="M945.305 458.124C945.305 458.124 947.491 455.839 947.441 453.603Z" fill="#FF6584"/>
<path d="M922.788 439.196C922.788 439.196 921.864 436.171 919.89 435.121Z" fill="#FF6584"/>
<path d="M900.672 398.258C900.672 398.258 899.748 395.234 897.774 394.183Z" fill="#FF6584"/>
<path d="M926.828 453.184C926.828 453.184 925.904 450.16 923.93 449.11Z" fill="#FF6584"/>
<path d="M923.689 404.193C923.689 404.193 922.765 401.169 920.791 400.118Z" fill="#FF6584"/>
<path d="M917.74 422.21C917.74 422.21 916.816 419.186 914.842 418.135Z" fill="#FF6584"/>
<path d="M943.393 489.13C943.393 489.13 945.579 486.844 945.529 484.609Z" fill="#FF6584"/>
<path d="M947.345 472.119C947.345 472.119 949.53 469.833 949.48 467.598Z" fill="#FF6584"/>
<path d="M919.954 469.337L895.976 477.405L896.295 478.354L920.273 470.286L919.954 469.337Z" fill="#FF6584"/>
<path d="M918.214 470.296C919.124 473.814 917.61 472.978 916.231 473.267C914.852 473.556 915.127 474.826 913.221 471.344C911.903 468.937 913.825 468.663 915.204 468.374C916.583 468.084 917.592 467.894 918.214 470.296Z" fill="#FF6584"/>
</svg>
