<svg width="103" height="116" viewBox="0 0 103 116" xmlns="http://www.w3.org/2000/svg">
<path d="M57.8133 115.44C50.9288 115.446 44.0993 114.213 37.6512 111.801C37.2823 111.663 36.9442 111.453 36.6563 111.184C36.3684 110.916 36.1363 110.593 35.9732 110.234C35.8101 109.875 35.7193 109.488 35.7058 109.094C35.6924 108.701 35.7566 108.308 35.8948 107.939C36.0331 107.57 36.2426 107.232 36.5115 106.944C36.7804 106.657 37.1034 106.424 37.462 106.261C37.8206 106.098 38.2078 106.007 38.6016 105.994C38.9953 105.98 39.3878 106.045 39.7567 106.183C48.3054 109.343 57.5305 110.217 66.5208 108.721C75.511 107.225 83.9555 103.41 91.0203 97.6522C68.9822 97.8866 47.4256 87.4715 36.701 70.7596C29.8065 60.0164 27.5526 47.3748 30.1805 34.201C32.1928 24.6479 36.324 15.6683 42.2694 7.92465C30.9178 11.5365 21.1486 18.9328 14.5926 28.8787C8.03656 38.8247 5.09041 50.7184 6.24591 62.5746C6.28618 62.9673 6.2485 63.3642 6.13507 63.7423C6.02165 64.1205 5.83473 64.4725 5.58496 64.7783C5.3352 65.0841 5.02749 65.3376 4.67957 65.5242C4.33165 65.7108 3.95033 65.8269 3.55744 65.8659C3.16455 65.9048 2.76787 65.8658 2.39008 65.7511C2.01229 65.6364 1.66083 65.4483 1.3559 65.1975C1.05097 64.9467 0.798552 64.6382 0.613101 64.2896C0.42765 63.9411 0.312831 63.5594 0.275211 63.1663C-1.18214 48.2497 3.18686 33.3476 12.4677 21.5792C21.7486 9.81082 35.2218 2.08849 50.0672 0.028651C50.6879 -0.0577562 51.3201 0.0524231 51.8749 0.343699C52.4298 0.634975 52.8795 1.09272 53.161 1.65267C53.4424 2.21263 53.5413 2.84665 53.4439 3.46572C53.3465 4.0848 53.0577 4.65782 52.618 5.10433C37.2742 20.6898 27.9627 46.0331 41.7498 67.5193C52.6278 84.4686 76.033 94.1629 98.6785 91.0989C99.286 91.0167 99.9041 91.1226 100.45 91.4023C100.995 91.682 101.442 92.1221 101.73 92.6634C102.017 93.2047 102.132 93.8212 102.059 94.4298C101.986 95.0384 101.728 95.6101 101.32 96.0677C95.8368 102.173 89.1281 107.053 81.6317 110.391C74.1352 113.729 66.0193 115.449 57.8133 115.44Z" fill="#6C63FF"/>
</svg>
