<svg width="121" height="121" viewBox="0 0 121 121" xmlns="http://www.w3.org/2000/svg">
<path d="M103.468 103.782C102.901 103.782 102.34 103.671 101.817 103.454C101.293 103.238 100.818 102.919 100.418 102.518L91.2669 93.3674C90.8656 92.967 90.5471 92.4914 90.3297 91.9679C90.1124 91.4443 90.0003 90.8831 90 90.3162C89.9997 89.7493 90.1111 89.1879 90.3279 88.6641C90.5447 88.1403 90.8626 87.6643 91.2635 87.2635C91.6643 86.8626 92.1403 86.5447 92.6641 86.3279C93.1879 86.1111 93.7493 85.9997 94.3162 86C94.8831 86.0003 95.4443 86.1124 95.9679 86.3297C96.4914 86.5471 96.967 86.8656 97.3674 87.2669L106.518 96.4177C107.122 97.021 107.532 97.7896 107.699 98.6264C107.865 99.4632 107.78 100.331 107.453 101.119C107.127 101.907 106.574 102.581 105.865 103.055C105.155 103.529 104.321 103.782 103.468 103.782V103.782Z" fill="#6C63FF"/>
<path d="M60.4002 21.5626C59.2561 21.5626 58.1589 21.1081 57.3499 20.2991C56.5409 19.4901 56.0864 18.3929 56.0864 17.2488V4.30728C56.0881 3.16432 56.5434 2.06875 57.3522 1.26117C58.161 0.453588 59.2573 0 60.4002 0C61.5432 0 62.6395 0.453588 63.4483 1.26117C64.2571 2.06875 64.7123 3.16432 64.7141 4.30728V17.2488C64.7141 17.8153 64.6025 18.3762 64.3857 18.8996C64.1689 19.423 63.8511 19.8985 63.4506 20.2991C63.05 20.6997 62.5744 21.0175 62.0511 21.2342C61.5277 21.451 60.9667 21.5626 60.4002 21.5626V21.5626Z" fill="#6C63FF"/>
<path d="M60.4002 120.781C59.8337 120.781 59.2728 120.669 58.7494 120.452C58.226 120.236 57.7504 119.918 57.3499 119.517C56.9493 119.117 56.6315 118.641 56.4147 118.118C56.198 117.594 56.0864 117.034 56.0864 116.467V103.526C56.0855 102.958 56.1965 102.397 56.4129 101.873C56.6293 101.349 56.9469 100.872 57.3475 100.471C57.7482 100.07 58.2241 99.7513 58.7479 99.5341C59.2717 99.3169 59.8332 99.2051 60.4002 99.2051C60.9673 99.2051 61.5288 99.3169 62.0526 99.5341C62.5764 99.7513 63.0522 100.07 63.4529 100.471C63.8535 100.872 64.1712 101.349 64.3876 101.873C64.604 102.397 64.7149 102.958 64.7141 103.526V116.467C64.7141 117.034 64.6025 117.594 64.3857 118.118C64.1689 118.641 63.8512 119.117 63.4506 119.517C63.05 119.918 62.5745 120.236 62.0511 120.453C61.5277 120.669 60.9667 120.781 60.4002 120.781V120.781Z" fill="#6C63FF"/>
<path d="M90.9043 34.1967C90.0511 34.1967 89.2171 33.9437 88.5077 33.4696C87.7983 32.9956 87.2454 32.3219 86.919 31.5336C86.5925 30.7454 86.5071 29.878 86.6735 29.0412C86.8399 28.2044 87.2508 27.4358 87.8541 26.8325L97.0049 17.6818C97.8141 16.8736 98.9111 16.4197 100.055 16.4201C101.198 16.4205 102.295 16.875 103.104 17.6837C103.913 18.4924 104.367 19.5891 104.367 20.7328C104.368 21.8765 103.914 22.9734 103.105 23.7826L93.9546 32.9333C93.5545 33.3344 93.079 33.6525 92.5556 33.8694C92.0321 34.0862 91.4709 34.1974 90.9043 34.1967V34.1967Z" fill="#6C63FF"/>
<path d="M20.7453 104.356C19.8921 104.356 19.0581 104.103 18.3487 103.629C17.6393 103.155 17.0864 102.481 16.7599 101.693C16.4334 100.905 16.348 100.037 16.5144 99.2006C16.6808 98.3638 17.0916 97.5951 17.6949 96.9918L26.8456 87.841C27.6545 87.032 28.7518 86.5774 29.8959 86.5774C31.04 86.5774 32.1373 87.0319 32.9463 87.8409C33.7553 88.6498 34.2098 89.7471 34.2098 90.8912C34.2099 92.0353 33.7554 93.1326 32.9464 93.9416L23.7957 103.092C23.3955 103.494 22.92 103.812 22.3966 104.029C21.8731 104.245 21.3119 104.357 20.7453 104.356V104.356Z" fill="#6C63FF"/>
<path d="M116.48 64.701H103.539C102.396 64.6993 101.3 64.244 100.492 63.4352C99.6849 62.6263 99.2313 61.5301 99.2313 60.3872C99.2313 59.2442 99.6849 58.1479 100.492 57.3391C101.3 56.5303 102.396 56.075 103.539 56.0733H116.48C117.047 56.0724 117.609 56.1834 118.133 56.3998C118.657 56.6162 119.133 56.9338 119.535 57.3345C119.936 57.7351 120.254 58.211 120.471 58.7348C120.689 59.2586 120.8 59.8201 120.8 60.3872C120.8 60.9542 120.689 61.5157 120.471 62.0395C120.254 62.5633 119.936 63.0392 119.535 63.4398C119.133 63.8405 118.657 64.1581 118.133 64.3745C117.609 64.5909 117.047 64.7019 116.48 64.701Z" fill="#6C63FF"/>
<path d="M17.2619 64.701H4.3204C3.75335 64.7019 3.19168 64.5909 2.66754 64.3745C2.1434 64.1581 1.66708 63.8405 1.26581 63.4398C0.864535 63.0392 0.546181 62.5633 0.328979 62.0395C0.111778 61.5157 0 60.9542 0 60.3872C0 59.8201 0.111778 59.2586 0.328979 58.7348C0.546181 58.211 0.864535 57.7351 1.26581 57.3345C1.66708 56.9338 2.1434 56.6162 2.66754 56.3998C3.19168 56.1834 3.75335 56.0724 4.3204 56.0733H17.2619C18.4049 56.075 19.5004 56.5303 20.308 57.3391C21.1156 58.1479 21.5692 59.2442 21.5692 60.3872C21.5692 61.5301 21.1156 62.6263 20.308 63.4352C19.5004 64.244 18.4049 64.6993 17.2619 64.701H17.2619Z" fill="#6C63FF"/>
<path d="M29.896 34.1967C29.3294 34.1975 28.7682 34.0862 28.2447 33.8694C27.7212 33.6526 27.2458 33.3344 26.8457 32.9332L17.6949 23.7826C17.2943 23.382 16.9765 22.9065 16.7597 22.3831C16.5429 21.8597 16.4313 21.2987 16.4313 20.7322C16.4313 20.1657 16.5429 19.6047 16.7597 19.0813C16.9765 18.5579 17.2943 18.0824 17.6949 17.6818C18.0954 17.2812 18.571 16.9634 19.0944 16.7466C19.6178 16.5298 20.1788 16.4183 20.7453 16.4183C21.3118 16.4183 21.8727 16.5298 22.3961 16.7466C22.9195 16.9634 23.3951 17.2812 23.7957 17.6818L32.9463 26.8326C33.5495 27.4359 33.9604 28.2046 34.1268 29.0414C34.2932 29.8781 34.2078 30.7455 33.8813 31.5337C33.5548 32.322 33.0019 32.9957 32.2925 33.4697C31.5832 33.9437 30.7491 34.1967 29.896 34.1967V34.1967Z" fill="#6C63FF"/>
<path d="M60.4002 86.2701C55.281 86.2701 50.2768 84.7521 46.0204 81.9081C41.7639 79.064 38.4465 75.0216 36.4875 70.2921C34.5284 65.5626 34.0159 60.3585 35.0146 55.3377C36.0133 50.3168 38.4784 45.7049 42.0982 42.0851C45.718 38.4653 50.3299 36.0002 55.3507 35.0015C60.3715 34.0028 65.5757 34.5154 70.3052 36.4744C75.0347 38.4334 79.0771 41.7509 81.9211 46.0073C84.7652 50.2638 86.2832 55.268 86.2832 60.3871C86.2755 67.2494 83.546 73.8283 78.6937 78.6806C73.8414 83.533 67.2624 86.2624 60.4002 86.2701V86.2701ZM60.4002 43.1318C56.9874 43.1318 53.6513 44.1438 50.8137 46.0399C47.976 47.9359 45.7644 50.6308 44.4584 53.7838C43.1524 56.9368 42.8106 60.4063 43.4764 63.7535C44.1422 67.1007 45.7856 70.1753 48.1989 72.5885C50.6121 75.0017 53.6867 76.6451 57.0339 77.3109C60.3811 77.9767 63.8505 77.635 67.0035 76.329C70.1565 75.023 72.8515 72.8113 74.7475 69.9737C76.6435 67.1361 77.6555 63.7999 77.6555 60.3871C77.6504 55.8123 75.8307 51.4264 72.5959 48.1915C69.361 44.9566 64.975 43.137 60.4002 43.1318V43.1318Z" fill="#6C63FF"/>
</svg>
