<svg width="928" height="743" viewBox="0 0 928 743" fill="none" xmlns="http://www.w3.org/2000/svg">
<g clip-path="url(#clip0)">
<path d="M927.76 251.193V444.373H425.38V251.193C425.289 196.828 442.923 143.915 475.61 100.473C497.537 71.2321 525.582 47.1292 557.787 29.847C589.992 12.5647 625.581 2.51972 662.07 0.413158C666.86 0.133158 671.693 -0.00350441 676.57 0.00316225C679.34 0.00316225 682.11 0.0431616 684.85 0.143162C748.585 2.16182 809.148 28.4249 854.18 73.5732C855.54 74.9332 856.87 76.3032 858.21 77.6832C865.093 84.8927 871.544 92.5026 877.53 100.473C910.212 143.917 927.846 196.829 927.76 251.193Z" fill="#3F3D56"/>
<path d="M802.645 243.484C839.202 243.484 868.838 213.849 868.838 177.291C868.838 140.734 839.202 111.099 802.645 111.099C766.088 111.099 736.453 140.734 736.453 177.291C736.453 213.849 766.088 243.484 802.645 243.484Z" fill="#6C63FF"/>
<path opacity="0.2" d="M796.134 139.312C800.33 139.312 803.73 135.911 803.73 131.716C803.73 127.521 800.33 124.12 796.134 124.12C791.939 124.12 788.539 127.521 788.539 131.716C788.539 135.911 791.939 139.312 796.134 139.312Z" fill="black"/>
<path opacity="0.2" d="M809.156 215.271C813.351 215.271 816.752 211.87 816.752 207.675C816.752 203.48 813.351 200.079 809.156 200.079C804.961 200.079 801.56 203.48 801.56 207.675C801.56 211.87 804.961 215.271 809.156 215.271Z" fill="black"/>
<path opacity="0.2" d="M838.454 170.781C841.451 170.781 843.88 168.352 843.88 165.355C843.88 162.359 841.451 159.93 838.454 159.93C835.458 159.93 833.029 162.359 833.029 165.355C833.029 168.352 835.458 170.781 838.454 170.781Z" fill="black"/>
<path opacity="0.2" d="M776.602 200.079C786.191 200.079 793.964 192.306 793.964 182.717C793.964 173.128 786.191 165.355 776.602 165.355C767.013 165.355 759.24 173.128 759.24 182.717C759.24 192.306 767.013 200.079 776.602 200.079Z" fill="black"/>
<path opacity="0.8" d="M594.565 359.061L627.536 320.462L660.507 281.864L679.119 260.074C680.149 258.869 678.56 256.988 677.53 258.194L644.559 296.792L611.589 335.391L592.976 357.18C591.946 358.386 593.536 360.267 594.565 359.061V359.061Z" fill="url(#paint0_linear)"/>
<path opacity="0.8" d="M591.565 189.061L624.536 150.462L657.507 111.864L676.119 90.0744C677.149 88.8688 675.56 86.988 674.53 88.1935L641.559 126.792L608.589 165.391L589.976 187.18C588.946 188.386 590.536 190.267 591.565 189.061V189.061Z" fill="url(#paint1_linear)"/>
<path d="M684.853 0.144975V444.371H662.065V0.414232C666.861 0.134605 671.695 -0.00349294 676.567 -5.96048e-05C679.343 -5.96048e-05 682.108 0.0413552 684.853 0.144975Z" fill="white"/>
<path d="M877.528 100.476H475.605C481.588 92.504 488.039 84.8945 494.924 77.6873H858.21C865.094 84.8945 871.545 92.504 877.528 100.476V100.476Z" fill="white"/>
<path d="M871.619 297.631C874.499 297.631 876.834 295.296 876.834 292.415C876.834 289.535 874.499 287.2 871.619 287.2C868.738 287.2 866.403 289.535 866.403 292.415C866.403 295.296 868.738 297.631 871.619 297.631Z" fill="#E6E6E6"/>
<path d="M534.619 254.631C537.499 254.631 539.834 252.296 539.834 249.415C539.834 246.535 537.499 244.2 534.619 244.2C531.738 244.2 529.403 246.535 529.403 249.415C529.403 252.296 531.738 254.631 534.619 254.631Z" fill="#E6E6E6"/>
<path d="M772.631 272.745L770.028 275.331L767.442 272.727L765.707 274.451L768.292 277.054L765.689 279.64L767.412 281.375L770.016 278.79L772.601 281.393L774.337 279.669L771.751 277.066L774.354 274.481L772.631 272.745Z" fill="#E6E6E6"/>
<path d="M484.631 324.745L482.028 327.331L479.442 324.727L477.707 326.451L480.292 329.054L477.689 331.64L479.412 333.375L482.016 330.79L484.601 333.393L486.337 331.669L483.751 329.066L486.354 326.481L484.631 324.745Z" fill="#E6E6E6"/>
<path d="M743.631 354.745L741.028 357.331L738.442 354.727L736.707 356.451L739.292 359.054L736.689 361.64L738.412 363.375L741.016 360.79L743.601 363.393L745.337 361.669L742.751 359.066L745.354 356.481L743.631 354.745Z" fill="#E6E6E6"/>
<path d="M567.631 124.745L565.028 127.331L562.442 124.727L560.707 126.451L563.292 129.054L560.689 131.64L562.412 133.375L565.016 130.79L567.601 133.393L569.337 131.669L566.751 129.066L569.354 126.481L567.631 124.745Z" fill="#E6E6E6"/>
<path d="M606.096 705.803H0V707.803H606.096V705.803Z" fill="#E6E6E6"/>
<path d="M96.4241 544.564C83.1741 563.294 79.6741 669.894 78.8941 704.064C78.8741 704.834 78.8541 705.564 78.8441 706.254H45.3041C44.8941 705.524 44.5141 704.804 44.1541 704.064C24.2741 664.824 35.3041 617.774 35.8841 615.394C34.3741 622.874 41.2041 644.554 48.9241 665.554C53.634 600.984 93.9041 547.824 96.4241 544.564Z" fill="#E6E6E6"/>
<path d="M303.245 448.589L299.449 465.039C299.449 465.039 300.714 503 290.592 499.204C280.469 495.408 282.999 462.508 282.999 462.508L291.857 446.059L303.245 448.589Z" fill="#FFB8B8"/>
<path d="M246.937 268.276C260.913 268.276 272.244 256.945 272.244 242.968C272.244 228.992 260.913 217.661 246.937 217.661C232.96 217.661 221.63 228.992 221.63 242.968C221.63 256.945 232.96 268.276 246.937 268.276Z" fill="#FFB8B8"/>
<path d="M227.324 249.928L224.793 286.623L256.427 290.419C256.427 290.419 256.427 260.051 258.958 256.255C261.488 252.459 227.324 249.928 227.324 249.928Z" fill="#FFB8B8"/>
<path d="M297.478 297.716L256.487 280.399C256.487 280.399 236.9 265.313 225.427 276.489L220.278 283.864C220.278 283.864 174.741 301.619 174.753 315.538L192.529 385.117C192.529 385.117 182.441 424.352 197.627 426.87L279.882 434.39C279.882 434.39 291.258 420.461 281.12 402.755L284.879 360.995L297.478 297.716Z" fill="#E6E6E6"/>
<path d="M269.641 299.005L297.478 297.715C297.478 297.715 306.337 300.238 312.685 324.275C319.033 348.311 320.333 387.536 320.333 387.536L305.21 458.409L286.228 455.895L293.76 387.559L281.067 342.017L269.641 299.005Z" fill="#E6E6E6"/>
<path d="M189.93 306.667L176.209 310.954C176.209 310.954 164.641 328.2 164.649 337.058C164.657 345.915 159.654 412.984 159.654 412.984L192.601 467.366L202.701 440.784L182.425 406.637L198.838 364.866L189.93 306.667Z" fill="#E6E6E6"/>
<path d="M283.632 431.507L192.657 423.503C192.657 423.503 183.669 480.856 184.934 503.633C186.199 526.409 187.465 561.839 187.465 561.839L177.342 716.213L216.568 711.151L221.63 583.35L238.079 513.755L257.06 602.331L269.713 716.213L303.878 712.417L292.49 574.493C292.49 574.493 302.613 450.487 283.632 431.507Z" fill="#2F2E41"/>
<path d="M296.286 706.09L307.674 709.886C307.674 709.886 331.716 703.559 325.389 720.009C319.062 736.459 301.347 733.928 301.347 733.928C301.347 733.928 279.836 750.378 270.979 737.724L276.04 711.152L296.286 706.09Z" fill="#2F2E41"/>
<path d="M203.914 706.09L215.303 709.886C215.303 709.886 239.345 703.559 233.018 720.009C226.691 736.459 208.976 733.928 208.976 733.928C208.976 733.928 187.465 750.378 178.607 737.724L183.669 711.152L203.914 706.09Z" fill="#2F2E41"/>
<path d="M227.324 265.112C227.324 265.112 200.751 246.132 214.67 223.355C224.326 207.554 244.335 208.805 255.685 211.053C258.743 211.618 261.618 212.917 264.062 214.84C266.506 216.763 268.445 219.251 269.713 222.09C271.611 226.519 271.611 230.947 264.019 230.947C248.835 230.947 256.427 242.336 256.427 242.336C256.427 242.336 246.304 244.866 248.835 253.724C251.365 262.581 227.324 265.112 227.324 265.112Z" fill="#2F2E41"/>
</g>
<defs>
<linearGradient id="paint0_linear" x1="592.643" y1="308.627" x2="679.453" y2="308.627" gradientUnits="userSpaceOnUse">
<stop stop-color="white"/>
<stop offset="1" stop-color="white" stop-opacity="0.3"/>
</linearGradient>
<linearGradient id="paint1_linear" x1="63593.1" y1="22182.3" x2="71129" y2="22182.3" gradientUnits="userSpaceOnUse">
<stop stop-color="white"/>
<stop offset="1" stop-color="white" stop-opacity="0.3"/>
</linearGradient>
<clipPath id="clip0">
<rect width="927.76" height="742.508" fill="white"/>
</clipPath>
</defs>
</svg>
